# xmcd
#
# Track frame offsets: 
#        150
#        19838
#        37838
#        60976
#        82163
#        111226
#        137626
#        163951
#        188101
#        211726
#        233551
#
# Disc length: 3397 seconds
#
# Revision: 0
# Processed by: cddbd v1.5.2PL0 Copyright (c) Steve Scherf et al.
# Submitted via: ExactAudioCopy v1.0b3
#
DISCID=8b0d430b
DTITLE=Various Artist - works.2 DISC2
DYEAR=2011
DGENRE=Techno
TTITLE0=削除 - off_line
TTITLE1=naotyu- - DRS
TTITLE2=sweez - clue
TTITLE3=Yamajet - Repress
TTITLE4=0kash - Le travail
TTITLE5=LuL - flow(LuL Prog Remix)
TTITLE6=maozon - Journey to the Nowhere
TTITLE7=月代 彩 - Icecream Planet
TTITLE8=only - A Lake in the Autumn
TTITLE9=b - PC、休憩。
TTITLE10=doku - ボクとユウウツ
EXTD=
EXTT0=
EXTT1=
EXTT2=
EXTT3=
EXTT4=
EXTT5=
EXTT6=
EXTT7=
EXTT8=
EXTT9=
EXTT10=
PLAYORDER=
